<svg xmlns="http://www.w3.org/2000/svg" viewBox="0 0 128 128" role="img" aria-label="Fire Guard Group mark">
  <defs>
    <linearGradient id="bg" x1="0" x2="1" y1="0" y2="1">
      <stop offset="0%" stop-color="#14282d"/>
      <stop offset="100%" stop-color="#081012"/>
    </linearGradient>
    <linearGradient id="flame" x1="0" x2="0" y1="0" y2="1">
      <stop offset="0%" stop-color="#ffd27a"/>
      <stop offset="45%" stop-color="#ff7a18"/>
      <stop offset="100%" stop-color="#b03b05"/>
    </linearGradient>
  </defs>
  <rect width="128" height="128" rx="28" fill="url(#bg)"/>
  <path d="M64 20c9 12 16 20 16 33 0 10-5 16-10 22 4-1 8-4 11-8 4 4 7 10 7 17 0 16-12 26-24 26s-24-10-24-26c0-13 8-21 15-27-1 7 1 13 6 18 0-13 2-24 3-35 0-7 0-13 0-20Z" fill="url(#flame)"/>
  <path d="M43 96h42" stroke="#f3c85f" stroke-width="6" stroke-linecap="round" opacity="0.9"/>
</svg>
